<svg width="25" height="25" viewBox="0 0 25 25" fill="none" xmlns="http://www.w3.org/2000/svg">
<path d="M25 9.94678C25 8.12769 24.504 6.34746 23.5657 4.79854C23.4608 4.62549 23.2355 4.57031 23.0627 4.67505C22.8897 4.77983 22.8344 5.00503 22.9392 5.17803C23.8083 6.6125 24.2676 8.26152 24.2676 9.94678C24.2676 13.3647 22.395 16.4603 19.4295 18.0583C19.5975 17.5294 19.7222 16.9814 19.7998 16.4186C21.8559 14.9074 23.0791 12.5008 23.0791 9.94678C23.0791 5.52129 19.4787 1.9209 15.0532 1.9209C12.4992 1.9209 10.0926 3.14409 8.58145 5.20024C8.0186 5.27788 7.47061 5.40249 6.94165 5.57051C8.53979 2.60503 11.6353 0.732422 15.0532 0.732422C17.7927 0.732422 20.3719 1.93989 22.1295 4.04521C22.2591 4.20054 22.49 4.22124 22.6453 4.09165C22.8006 3.96201 22.8213 3.7311 22.6917 3.57583C20.7946 1.30337 18.0105 0 15.0532 0C11.092 0 7.53218 2.33008 5.94307 5.94849C2.44663 7.49214 0 10.9919 0 15.053C0 20.5378 4.46221 25 9.94697 25C14.0081 25 17.5079 22.5534 19.0515 19.0569C22.67 17.4678 25 13.908 25 9.94678ZM15.0532 2.65332C19.0749 2.65332 22.3467 5.92515 22.3467 9.94678C22.3467 12.0432 21.4396 14.0304 19.8869 15.4076C19.8911 15.2898 19.8939 15.1718 19.8939 15.053C19.8939 9.56826 15.4317 5.10605 9.94692 5.10605C9.82817 5.10605 9.71011 5.10889 9.59238 5.11304C10.9695 3.56045 12.9568 2.65332 15.0532 2.65332ZM9.94697 24.2676C4.86602 24.2676 0.732422 20.1339 0.732422 15.053C0.732422 9.97212 4.86602 5.83848 9.94697 5.83848C15.0279 5.83848 19.1615 9.97207 19.1615 15.053C19.1615 20.134 15.0279 24.2676 9.94697 24.2676Z" fill="#F0E700"/>
<path d="M9.947 7.0271C5.52146 7.0271 1.92102 10.6275 1.92102 15.053C1.92102 19.4785 5.52146 23.079 9.947 23.079C14.3725 23.079 17.9729 19.4786 17.9729 15.053C17.9729 10.6275 14.3725 7.0271 9.947 7.0271ZM9.947 22.3466C5.92532 22.3466 2.65344 19.0747 2.65344 15.053C2.65344 11.0313 5.92532 7.75952 9.947 7.75952C13.9686 7.75952 17.2405 11.0314 17.2405 15.053C17.2405 19.0747 13.9686 22.3466 9.947 22.3466Z" fill="#F0E700"/>
<path d="M11.4047 14.1166C11.2695 14.0773 11.1378 14.0383 11.0108 13.9999V11.955C11.2891 12.0528 11.4524 12.1636 11.476 12.1803C11.7157 12.3499 12.0071 12.416 12.2967 12.3663C12.5862 12.3166 12.8389 12.1573 13.0086 11.9174C13.3584 11.4223 13.2405 10.7347 12.7455 10.3845C12.5656 10.2574 11.9487 9.86299 11.0108 9.68706V9.49756C11.0108 8.89121 10.5175 8.39795 9.9112 8.39795C9.30485 8.39795 8.81154 8.89121 8.81154 9.49756V9.75215C8.79274 9.75659 8.77414 9.76113 8.75583 9.76572C8.53786 9.81992 8.32716 9.89394 8.12951 9.98569C7.94606 10.0708 7.86637 10.2886 7.95153 10.4721C8.03673 10.6555 8.25446 10.7352 8.43791 10.65C8.59337 10.5779 8.75983 10.5195 8.93307 10.4764C9.02697 10.4529 9.12863 10.4312 9.24396 10.41C9.41779 10.378 9.54396 10.2265 9.54396 10.0498V9.49756C9.54396 9.29512 9.70871 9.13037 9.9112 9.13037C10.1137 9.13037 10.2784 9.29512 10.2784 9.49756V10.001C10.2784 10.1862 10.4167 10.3423 10.6007 10.3646C11.5733 10.4821 12.2061 10.9001 12.3228 10.9825C12.4881 11.0995 12.5274 11.3292 12.4107 11.4945C12.354 11.5746 12.2695 11.6278 12.1729 11.6444C12.0762 11.6611 11.9791 11.639 11.8983 11.5818C11.7867 11.5034 11.3713 11.2384 10.7081 11.1218C10.6016 11.103 10.4921 11.1324 10.4092 11.202C10.3263 11.2715 10.2784 11.3742 10.2784 11.4824V14.271C10.2784 14.4315 10.383 14.5733 10.5363 14.6208C10.7435 14.685 10.9668 14.752 11.1998 14.8198C12.6136 15.2322 13.4169 16.2866 13.2463 17.5059C13.1025 18.5333 12.2238 19.6906 10.5852 19.9599C10.4083 19.989 10.2784 20.1419 10.2784 20.3213V20.9502C10.2784 21.1526 10.1137 21.3174 9.91125 21.3174C9.70876 21.3174 9.54401 21.1526 9.54401 20.9502V20.3711C9.54401 20.1752 9.38991 20.014 9.1942 20.0053C8.45211 19.972 7.83615 19.8521 6.88351 19.3379C6.79718 19.2913 6.73424 19.214 6.70617 19.12C6.67814 19.0261 6.68834 18.9268 6.73497 18.8404C6.78151 18.7541 6.85885 18.6912 6.9528 18.6631C7.04679 18.6351 7.14611 18.6453 7.23244 18.6919C7.96632 19.0879 8.45246 19.2337 9.1591 19.27C9.25871 19.2751 9.35729 19.2389 9.43009 19.1698C9.50285 19.1006 9.54406 19.0046 9.54406 18.9042V15.3232C9.54406 15.1699 9.4486 15.0329 9.30485 14.9797C8.67687 14.7476 8.21076 14.5269 7.83776 14.2853C7.21671 13.8834 6.90973 13.1624 7.03663 12.4036C7.09371 12.062 7.22946 11.7429 7.4402 11.455C7.55963 11.2918 7.52423 11.0627 7.36105 10.9432C7.19782 10.8237 6.96871 10.8591 6.84923 11.0224C6.57033 11.4033 6.39039 11.8274 6.31427 12.2828C6.13849 13.3343 6.56979 14.3372 7.43976 14.9C7.80836 15.1389 8.24865 15.3561 8.81173 15.5758V18.502C8.41032 18.4425 8.07321 18.3132 7.58039 18.0473C7.32184 17.9078 7.02462 17.8772 6.74323 17.9613C6.46178 18.0454 6.22999 18.234 6.09054 18.4925C5.95104 18.7509 5.92047 19.0482 6.00451 19.3296C6.08859 19.611 6.27721 19.8428 6.53571 19.9823C7.45392 20.478 8.1196 20.651 8.81169 20.7137V20.9501C8.81169 21.5564 9.305 22.0498 9.91134 22.0498C10.5176 22.0498 11.011 21.5564 11.011 20.9501V20.6219C12.8205 20.2016 13.8002 18.833 13.9718 17.6073C14.1956 16.007 13.1881 14.6369 11.4047 14.1166Z" fill="#F0E700"/>
<path d="M10.4203 19.1125C10.4852 19.1628 10.5642 19.1893 10.6447 19.1893C10.6751 19.1893 10.7058 19.1855 10.736 19.1777C11.703 18.9287 12.403 18.2325 12.519 17.4038C12.6398 16.5411 12.0697 15.8388 10.9939 15.5249C10.9104 15.5006 10.8292 15.4766 10.7493 15.4528C10.6384 15.4197 10.5185 15.441 10.4258 15.5101C10.3331 15.5792 10.2784 15.6881 10.2784 15.8037V18.8231C10.2784 18.9363 10.3308 19.0432 10.4203 19.1125ZM11.0109 16.3025C11.7667 16.593 11.8297 17.0452 11.7936 17.3023C11.732 17.7421 11.4004 18.0817 11.0109 18.2898V16.3025Z" fill="#F0E700"/>
<path d="M8.23639 13.6689C8.45094 13.8077 8.71144 13.9427 9.03292 14.0814C9.07946 14.1015 9.12887 14.1114 9.17804 14.1114C9.24855 14.1114 9.31862 14.091 9.37926 14.0512C9.48224 13.9835 9.5443 13.8685 9.5443 13.7452V11.5503C9.5443 11.4369 9.49181 11.3299 9.40211 11.2606C9.31241 11.1912 9.19557 11.1674 9.08595 11.1958C8.23561 11.4169 7.84386 12.027 7.76086 12.5244C7.6819 12.9972 7.85973 13.4251 8.23639 13.6689ZM8.48322 12.645C8.51164 12.4748 8.61325 12.2786 8.81178 12.1233V13.1604C8.74767 13.1246 8.68844 13.0891 8.63429 13.0541C8.47072 12.9481 8.46188 12.7731 8.48322 12.645Z" fill="#F0E700"/>
</svg>
