<svg width="27" height="25" viewBox="0 0 27 25" fill="none" xmlns="http://www.w3.org/2000/svg">
<path d="M26.7265 11.4733C26.4232 11.0865 25.9187 10.8803 25.4056 10.9335C24.8924 10.9867 24.4497 11.291 24.2464 11.7304L23.851 12.5844C23.5609 8.28283 20.877 6.12572 19.6735 5.36975C20.662 4.48378 20.9706 3.13107 20.4535 1.95083C19.9363 0.770588 18.697 -0.00100845 17.321 0.000700132C15.9451 0.00240871 14.7079 0.776983 14.1942 1.95849C13.6804 3.14 13.9929 4.49193 14.9839 5.37551C14.4489 5.71264 13.9558 6.10342 13.5135 6.54062C13.0669 6.09907 12.5686 5.70512 12.0275 5.36594C13.0146 4.47826 13.3208 3.12477 12.8012 1.94512C12.2816 0.765462 11.0404 -0.00413272 9.66414 1.66963e-05C8.28788 0.00421493 7.05216 0.781327 6.54097 1.96411C6.02977 3.14688 6.34547 4.49852 7.3389 5.3802C6.12217 6.14882 3.44422 8.32155 3.17493 12.64L2.75392 11.7306C2.55072 11.2911 2.10803 10.9865 1.59473 10.9332C1.08148 10.8799 0.576877 11.0861 0.273525 11.4731C-0.0298266 11.86 -0.0850439 12.368 0.128864 12.8031L1.89254 16.3946C2.13066 16.8807 2.4617 17.3229 2.86974 17.7001L5.64352 20.2676C5.48715 20.4208 5.39987 20.6235 5.39939 20.8343V24.1668C5.39987 24.6268 5.80258 24.9995 6.29948 25H11.2499C11.7468 24.9996 12.1494 24.6268 12.15 24.1668V21.2509H14.8502V24.1668C14.8507 24.6268 15.2534 24.9995 15.7503 25H20.7007C21.1976 24.9996 21.6002 24.6268 21.6008 24.1668V20.8343C21.6003 20.6235 21.513 20.4208 21.3566 20.2676L24.1304 17.7001C24.5385 17.3229 24.8695 16.8807 25.1076 16.3946L26.8713 12.8031C27.085 12.3681 27.0297 11.8602 26.7265 11.4733ZM14.8501 3.13014C14.8501 1.86476 15.9583 0.839028 17.3253 0.839028C18.6923 0.839028 19.8005 1.86481 19.8005 3.13014C19.8005 4.39547 18.6923 5.42125 17.3253 5.42125C15.9589 5.41984 14.8517 4.39488 14.8501 3.13014ZM15.7713 5.90068C16.2509 6.133 16.7841 6.25436 17.3253 6.25436C17.8734 6.25455 18.4132 6.13031 18.8974 5.89258C19.7556 6.34901 23.1281 8.48054 22.9727 13.6769C22.4175 13.4531 21.7845 13.464 21.2387 13.707C21.2226 12.094 20.8749 10.4987 20.2141 9.0062C20.1509 8.86917 20.0135 8.77378 19.8537 8.75606C19.6939 8.73834 19.536 8.80102 19.4397 8.92038C19.3434 9.03974 19.3233 9.19766 19.387 9.33449C19.3996 9.36193 20.6175 12.0368 20.2789 14.3531C19.6668 14.8275 18.9776 15.2094 18.2366 15.4846C18.1471 15.5122 18.0619 15.5512 17.9755 15.5872C17.8025 13.1806 16.7173 11.8705 16.0545 11.2868C16.6422 10.5345 16.8065 9.56764 16.4967 8.68469C16.1868 7.80175 15.4402 7.10879 14.4871 6.8197C14.8779 6.4712 15.3085 6.16307 15.7713 5.90068ZM13.5 7.50411C14.7428 7.50411 15.7502 8.43661 15.7502 9.58697C15.7502 10.7373 14.7428 11.6698 13.5 11.6698C12.2573 11.6698 11.2498 10.7373 11.2498 9.58697C11.2513 8.43719 12.2579 7.50543 13.5 7.50411ZM7.19951 3.13014C7.19951 1.86476 8.30771 0.839028 9.67469 0.839028C11.0417 0.839028 12.1499 1.86481 12.1499 3.13014C12.1499 4.39547 11.0417 5.42125 9.67469 5.42125C8.30834 5.41984 7.20104 4.39488 7.19951 3.13014ZM8.11843 5.8997C9.09763 6.37469 10.2667 6.37254 11.2439 5.89394C11.7082 6.15609 12.1403 6.46432 12.5324 6.81311C11.5739 7.09766 10.8206 7.79008 10.5065 8.67537C10.1925 9.56066 10.3557 10.5317 10.9455 11.2868C10.2828 11.8705 9.19757 13.1806 9.02453 15.5872C8.93809 15.5513 8.85276 15.5123 8.76321 15.4846C8.02239 15.2094 7.33321 14.8275 6.72118 14.3531C6.38376 12.042 7.60064 9.36173 7.6133 9.3343C7.71002 9.12307 7.60402 8.87918 7.37619 8.78882C7.14836 8.69846 6.88451 8.79565 6.78599 9.0062C6.12523 10.4988 5.77747 12.0941 5.76139 13.707C5.22451 13.4698 4.6033 13.4578 4.05625 13.6742C3.90267 8.50559 7.23991 6.37035 8.11843 5.8997ZM3.50608 17.111C3.17451 16.8044 2.90544 16.445 2.71168 16.0501L0.947998 12.4586C0.871052 12.3055 0.885186 12.1265 0.985337 11.9854C1.08253 11.8427 1.25267 11.7568 1.43493 11.7584C1.649 11.7583 1.84244 11.8764 1.92651 12.0587L2.93292 14.2322C3.20056 14.8119 3.58587 15.3386 4.0679 15.784L6.12381 17.687C6.23746 17.7922 6.40316 17.8333 6.55848 17.7948C6.71374 17.7562 6.83504 17.644 6.87665 17.5002C6.91826 17.3565 6.87386 17.2031 6.7602 17.0979L4.7043 15.1949C4.49772 15.0038 4.31192 14.7943 4.14965 14.5696C4.58147 14.261 5.18654 14.2702 5.60723 14.5918C5.73644 14.6924 5.86296 14.7878 5.9879 14.8803C6.00704 14.8973 6.02788 14.9126 6.05003 14.9261C6.77318 15.4973 7.59395 15.9531 8.47863 16.275C8.90956 16.42 9.28553 16.678 9.56067 17.0175C10.0854 17.6501 10.3635 18.4283 10.3498 19.2257V20.001H6.62846L3.50608 17.111ZM6.29943 24.1668V20.8343H11.2498L11.2505 24.1668H6.29943ZM14.9753 20.4177H12.0247C11.8652 20.1609 11.5699 20.0021 11.2498 20.0012V19.2258C11.2498 19.0938 11.2435 18.9629 11.232 18.8331C11.241 18.8065 11.247 18.7792 11.2498 18.7515C11.2498 18.7265 11.2641 16.2388 12.4975 14.8504C12.6 14.7355 12.6284 14.5786 12.5719 14.4391C12.5154 14.2995 12.3827 14.1985 12.2239 14.1742C12.0651 14.1498 11.9043 14.2059 11.8023 14.3211C11.1795 15.0874 10.7601 15.9784 10.5777 16.9223C10.4832 16.7744 10.3782 16.6324 10.2634 16.4973C10.1524 16.3693 10.0322 16.2483 9.90358 16.1353C9.93759 13.6596 11.0135 12.3822 11.571 11.8872C12.7041 12.7082 14.296 12.7082 15.4291 11.8872C15.9866 12.3822 17.0625 13.6596 17.0965 16.1353C16.9678 16.2483 16.8476 16.3693 16.7366 16.4973C16.6218 16.6324 16.5168 16.7743 16.4223 16.9223C16.2399 15.9784 15.8205 15.0874 15.1978 14.3211C15.0398 14.1439 14.7565 14.1185 14.5648 14.2645C14.373 14.4105 14.3452 14.6726 14.5025 14.8504C15.732 16.2343 15.7503 18.7268 15.7503 18.7519C15.7532 18.7794 15.7591 18.8066 15.7681 18.8329C15.7566 18.9627 15.7503 19.0938 15.7503 19.2258V20.0012C15.4301 20.0021 15.1348 20.1609 14.9753 20.4177ZM20.7006 24.1668H15.7502V20.8343H20.7006V24.1668ZM26.0519 12.4586L24.2883 16.0501C24.0946 16.445 23.8254 16.8044 23.4939 17.111L20.3715 20.0011H16.6502V19.2258C16.6364 18.4284 16.9146 17.6502 17.4393 17.0176C17.7144 16.6782 18.0903 16.4201 18.5212 16.275C19.4061 15.9532 20.227 15.4973 20.9502 14.926C20.9722 14.9126 20.9928 14.8974 21.0118 14.8806C21.1369 14.7881 21.2634 14.6926 21.3927 14.5918C21.8132 14.2684 22.4195 14.2577 22.8531 14.5658C22.6902 14.792 22.5034 15.0028 22.2956 15.1949L20.2397 17.0979C20.126 17.2031 20.0817 17.3565 20.1233 17.5003C20.1649 17.644 20.2862 17.7563 20.4415 17.7948C20.5967 17.8333 20.7624 17.7922 20.8761 17.687L22.932 15.784C23.4141 15.3387 23.7994 14.8119 24.067 14.2323L25.0736 12.0585C25.1577 11.8764 25.3511 11.7583 25.565 11.7585C25.7469 11.7585 25.9163 11.8441 26.0147 11.9856C26.1132 12.1271 26.1272 12.3053 26.0519 12.4586Z" fill="#01A008"/>
<path d="M10.3496 22.084H9.8996C9.65105 22.084 9.44958 22.2705 9.44958 22.5005C9.44958 22.7306 9.65105 22.9171 9.8996 22.9171H10.3496C10.5982 22.9171 10.7996 22.7306 10.7996 22.5005C10.7996 22.2705 10.5982 22.084 10.3496 22.084Z" fill="#01A008"/>
<path d="M16.6501 22.9171H17.1001C17.3487 22.9171 17.5501 22.7306 17.5501 22.5005C17.5501 22.2705 17.3487 22.084 17.1001 22.084H16.6501C16.4015 22.084 16.2001 22.2705 16.2001 22.5005C16.2001 22.7306 16.4015 22.9171 16.6501 22.9171Z" fill="#01A008"/>
</svg>
