<svg width="25" height="25" viewBox="0 0 25 25" fill="none" xmlns="http://www.w3.org/2000/svg">
<path d="M2.15186 19.7231C2.06104 19.6323 1.93506 19.5801 1.80664 19.5801C1.67822 19.5801 1.55225 19.6323 1.46143 19.7231C1.37061 19.814 1.31836 19.9399 1.31836 20.0684C1.31836 20.1968 1.37061 20.3228 1.46143 20.4135C1.55225 20.5044 1.67822 20.5566 1.80664 20.5566C1.93506 20.5566 2.06104 20.5044 2.15186 20.4135C2.24268 20.3228 2.29492 20.1968 2.29492 20.0684C2.29492 19.9399 2.24268 19.814 2.15186 19.7231Z" fill="#0060B8"/>
<path d="M21.7591 5.66348C21.7589 5.66333 21.7587 5.66313 21.7585 5.66299L18.5033 3.46416C17.8792 3.04258 17.1357 2.88652 16.424 2.9915C16.4558 2.83813 16.4724 2.68052 16.4724 2.52026C16.4724 1.90605 16.2332 1.32861 15.7989 0.894238L15.5781 0.673486C15.1438 0.23916 14.5664 0 13.9521 0C13.3379 0 12.7604 0.23916 12.3261 0.673535C11.8917 1.10791 11.6526 1.68535 11.6526 2.29961C11.6526 2.91382 11.8918 3.49126 12.3261 3.92559L12.5468 4.14639C12.8234 4.42295 13.1582 4.62002 13.5234 4.72695L10.2381 7.20225C10.029 7.35977 9.8772 7.56665 9.78799 7.79526C9.55156 7.74751 9.30098 7.76089 9.06133 7.84648L5.87876 8.98223C5.99502 8.70747 6.05933 8.40561 6.05933 8.08901V7.77681C6.05933 6.50884 5.02773 5.47725 3.75977 5.47725C2.4918 5.47725 1.46021 6.50884 1.46021 7.77681V8.08901C1.46021 8.97129 1.95991 9.73867 2.69092 10.1242C1.86499 10.4732 1.31836 11.289 1.31836 12.1935V18.0176C1.31836 18.2872 1.53696 18.5059 1.80664 18.5059C2.07632 18.5059 2.29492 18.2872 2.29492 18.0176V17.124H4.22085C4.32251 17.124 4.41689 17.0929 4.49507 17.0397L6.70303 15.5409C6.92007 15.3936 7.17344 15.3158 7.43569 15.3158C8.15498 15.3158 8.74019 15.9009 8.74019 16.6202V19.6463L7.373 20.1934V17.749C7.373 17.5732 7.27847 17.411 7.12559 17.3243C6.97271 17.2376 6.78496 17.2397 6.63408 17.33L4.16016 18.81C3.85293 18.9937 3.66211 19.3303 3.66211 19.6883V24.0234H2.29492V21.9736C2.29492 21.704 2.07632 21.4854 1.80664 21.4854C1.53696 21.4854 1.31836 21.704 1.31836 21.9736V24.5117C1.31836 24.7813 1.53696 25 1.80664 25H4.15039C4.42007 25 4.63867 24.7813 4.63867 24.5117V19.6883C4.63867 19.6719 4.64746 19.6564 4.66152 19.648L6.39648 18.6101V24.5117C6.39648 24.7813 6.61509 25 6.88477 25H23.1934C23.463 25 23.6816 24.7813 23.6816 24.5117V9.21494C23.6816 7.77651 22.9631 6.44966 21.7591 5.66348ZM13.2374 3.45591L13.0167 3.23506C12.7667 2.9852 12.6291 2.65298 12.6291 2.29961C12.6291 1.94619 12.7667 1.61396 13.0167 1.36411C13.2665 1.11416 13.5987 0.976562 13.9521 0.976562C14.3056 0.976562 14.6377 1.11416 14.8876 1.36411L15.1084 1.58486C15.6242 2.10063 15.6242 2.94004 15.1084 3.45586C14.5925 3.97168 13.7532 3.97168 13.2374 3.45591ZM10.8258 7.98218L15.6699 4.33237C16.3412 3.82666 17.2602 3.80298 17.9567 4.27339L20.6636 6.10186L18.2746 8.02358L16.4011 6.75801C16.2658 6.6666 16.0938 6.64883 15.9427 6.71074L11.2059 8.65049C11.03 8.72236 10.8246 8.65395 10.727 8.49121C10.7266 8.49043 10.7261 8.4897 10.7256 8.48892C10.6249 8.31894 10.6679 8.10107 10.8258 7.98218ZM2.43677 8.08901V7.77681C2.43677 7.04731 3.03027 6.45381 3.75977 6.45381C4.48926 6.45381 5.08276 7.04727 5.08276 7.77681V8.08901C5.08276 8.81851 4.48926 9.41206 3.75977 9.41206C3.03027 9.41206 2.43677 8.81855 2.43677 8.08901ZM5.22461 12.8092V15.3643L4.07085 16.1475H2.29492V14.8275V12.1935C2.29492 11.6578 2.63384 11.1771 3.13828 10.997L9.3895 8.76616C9.56357 8.7041 9.7585 8.77436 9.85273 8.9334C9.9563 9.1081 9.9063 9.33506 9.73897 9.45005L5.43633 12.4068C5.30381 12.4979 5.22461 12.6484 5.22461 12.8092ZM7.43574 14.3392C6.9957 14.3392 6.57021 14.4649 6.20117 14.7026V13.0661L10.2921 10.2548C10.5249 10.0949 10.6928 9.87334 10.7888 9.62607C10.8793 9.64463 10.9718 9.65454 11.0649 9.65454C11.2366 9.65454 11.4101 9.62212 11.576 9.55415L16.071 7.71348L18.0113 9.02407C18.4434 9.35532 18.7012 9.87705 18.7012 10.4218V14.2578H17.7409C17.6329 14.2578 17.5279 14.2937 17.4423 14.3597L12.5887 18.1104L9.7168 19.2576V16.6202C9.7168 15.3625 8.69351 14.3392 7.43574 14.3392ZM22.7051 24.0234H7.37305V21.2454L13.0144 18.9918C13.0564 18.975 13.0959 18.9525 13.1318 18.9248L17.9076 15.2344H22.7051V24.0234ZM22.7051 14.2578H21.7285V10.4069C21.7285 10.1373 21.5099 9.9186 21.2402 9.9186C20.9706 9.9186 20.752 10.1373 20.752 10.4069V14.2578H19.6777V10.4218C19.6777 9.77661 19.4448 9.15234 19.0369 8.66372L21.5004 6.68203C22.2603 7.29868 22.7051 8.22222 22.7051 9.21494V14.2578Z" fill="#0060B8"/>
<path d="M20.8496 17.2039H19.7103C19.4406 17.2039 19.222 17.4225 19.222 17.6921C19.222 17.9618 19.4406 18.1804 19.7103 18.1804H20.3614V20.0685C20.3614 20.3381 20.58 20.5567 20.8496 20.5567C21.1193 20.5567 21.3379 20.3381 21.3379 20.0685V17.6921C21.3379 17.4225 21.1193 17.2039 20.8496 17.2039Z" fill="#0060B8"/>
<path d="M21.1948 21.6285C21.104 21.5376 20.978 21.4854 20.8496 21.4854C20.7212 21.4854 20.5952 21.5376 20.5044 21.6285C20.4136 21.7192 20.3613 21.8452 20.3613 21.9736C20.3613 22.1021 20.4136 22.228 20.5044 22.3188C20.5952 22.4097 20.7212 22.4619 20.8496 22.4619C20.978 22.4619 21.104 22.4097 21.1948 22.3188C21.2856 22.228 21.3379 22.1021 21.3379 21.9736C21.3379 21.8452 21.2856 21.7192 21.1948 21.6285Z" fill="#0060B8"/>
</svg>
