<svg width="25" height="25" viewBox="0 0 25 25" fill="none" xmlns="http://www.w3.org/2000/svg">
<path d="M24.9258 13.5734C24.8638 13.4472 24.7088 13.384 24.5848 13.3525C23.8718 13.3525 17.7333 13.1 17.7333 5.8398C17.7333 5.61884 17.5473 5.42944 17.3303 5.42944C17.1133 5.42944 16.9273 5.61884 16.9273 5.8398C16.9273 13.1 10.7888 13.3525 10.1068 13.3525C10.0138 13.3525 9.92075 13.3841 9.85874 13.4472C9.79674 13.4787 9.76574 13.5419 9.73474 13.5734C9.67273 13.6997 9.67273 13.8575 9.73474 13.9838C9.79674 14.1101 9.95175 14.2048 10.1068 14.2048C10.1068 14.2048 10.1068 14.2048 10.1378 14.2048C10.8508 14.2048 16.9583 14.4573 16.9583 21.7174C16.9583 21.9384 17.1443 22.1278 17.3613 22.1278C17.5783 22.1278 17.7643 21.9384 17.7643 21.7174C17.7643 14.4889 23.8718 14.2048 24.5848 14.2048C24.7398 14.2048 24.8638 14.1101 24.9568 13.9838C25.0188 13.8575 25.0188 13.6997 24.9258 13.5734ZM17.3303 18.624C16.4312 15.6252 14.2301 14.331 12.4939 13.7628C14.2301 13.1947 16.4312 11.9005 17.3303 8.90169C18.2293 11.9005 20.4305 13.1947 22.1666 13.7628C20.4305 14.331 18.2293 15.6252 17.3303 18.624Z" fill="#D92801"/>
<path d="M12.2149 5.3662C12.4319 5.3662 12.618 5.17681 12.618 4.92428C12.618 4.70332 12.4319 4.51392 12.2149 4.51392C11.8429 4.51392 8.49466 4.38766 8.49466 0.410357C8.49466 0.189395 8.30865 0 8.09163 0C7.87461 0 7.6886 0.189395 7.6886 0.410357C7.6886 4.38766 4.34036 4.51392 3.96834 4.51392C3.93733 4.51392 3.93733 4.51392 3.93733 4.51392C3.72032 4.54549 3.56531 4.70332 3.56531 4.92428C3.56531 5.14524 3.75132 5.33464 3.96834 5.33464C4.37137 5.33464 7.6886 5.4609 7.6886 9.4382C7.6886 9.65916 7.87461 9.84856 8.09163 9.84856C8.27764 9.88013 8.46366 9.69073 8.46366 9.46977C8.46366 5.49247 11.8119 5.3662 12.1839 5.3662H12.2149ZM8.06063 7.16546C7.56459 5.96595 6.66553 5.30307 5.82847 4.92428C6.72753 4.54549 7.56459 3.81947 8.06063 2.6831C8.55666 3.8826 9.45573 4.54549 10.2928 4.92428C9.39372 5.30307 8.55666 6.02909 8.06063 7.16546Z" fill="#D92801"/>
<path d="M8.64962 18.7503C8.27759 18.7503 4.92935 18.624 4.92935 14.6467C4.92935 14.4257 4.74334 14.2363 4.52632 14.2363C4.30931 14.2363 4.1233 14.4257 4.1233 14.6467C4.1233 18.624 0.775056 18.7503 0.403029 18.7503C0.372027 18.7503 0.372027 18.7503 0.372027 18.7503C0.155011 18.7818 0 18.9396 0 19.1606C0 19.3816 0.186013 19.571 0.403029 19.571C0.806058 19.571 4.1233 19.6972 4.1233 23.6745C4.1233 23.8955 4.30931 24.0849 4.52632 24.0849C4.71234 24.148 4.89835 23.9586 4.89835 23.7061C4.89835 19.7288 8.24659 19.6025 8.61862 19.6025H8.64962C8.86664 19.6025 9.05265 19.4131 9.05265 19.1606C9.05265 18.9396 8.86664 18.7503 8.64962 18.7503ZM4.49532 21.4334C3.96828 20.2338 3.10022 19.571 2.26316 19.1922C3.16223 18.8134 3.99929 18.0874 4.49532 16.951C4.99136 18.1505 5.89042 18.8134 6.72748 19.1922C5.82842 19.571 4.99136 20.297 4.49532 21.4334Z" fill="#D92801"/>
</svg>
